<?xml version="1.0" encoding="iso-8859-1"?>
<!-- Generator: Adobe Illustrator 19.0.0, SVG Export Plug-In . SVG Version: 6.00 Build 0)  -->
<svg width="16px" height="16px" version="1.1" id="Capa_1" xmlns="http://www.w3.org/2000/svg" xmlns:xlink="http://www.w3.org/1999/xlink" x="0px" y="0px"
	 viewBox="0 0 511.995 511.995" style="enable-background:new 0 0 511.995 511.995;" xml:space="preserve">
<path style="fill:#303C42;" d="M138.664,511.995c-2.646,0-5.313-0.979-7.375-2.958c-4.25-4.073-4.396-10.823-0.333-15.083
	L358.56,255.995L130.956,18.037c-4.063-4.26-3.917-11.01,0.333-15.083c4.25-4.083,11-3.896,15.083,0.333L381.039,248.62
	c3.938,4.125,3.938,10.625,0,14.75L146.373,508.704C144.268,510.891,141.477,511.995,138.664,511.995z"/>
<linearGradient id="SVGID_1_" gradientUnits="userSpaceOnUse" x1="-45.0637" y1="636.7474" x2="-30.7173" y2="630.0572" gradientTransform="matrix(21.3333 0 0 -21.3333 996.3815 13791.6143)">
	<stop  offset="0" style="stop-color:#FFFFFF;stop-opacity:0.2"/>
	<stop  offset="1" style="stop-color:#FFFFFF;stop-opacity:0"/>
</linearGradient>
<path style="fill:url(#SVGID_1_);" d="M138.664,511.995c-2.646,0-5.313-0.979-7.375-2.958c-4.25-4.073-4.396-10.823-0.333-15.083
	L358.56,255.995L130.956,18.037c-4.063-4.26-3.917-11.01,0.333-15.083c4.25-4.083,11-3.896,15.083,0.333L381.039,248.62
	c3.938,4.125,3.938,10.625,0,14.75L146.373,508.704C144.268,510.891,141.477,511.995,138.664,511.995z"/>
<g>
</g>
<g>
</g>
<g>
</g>
<g>
</g>
<g>
</g>
<g>
</g>
<g>
</g>
<g>
</g>
<g>
</g>
<g>
</g>
<g>
</g>
<g>
</g>
<g>
</g>
<g>
</g>
<g>
</g>
</svg>
